<!DOCTYPE svg PUBLIC "-//W3C//DTD SVG 1.1//EN" "http://www.w3.org/Graphics/SVG/1.1/DTD/svg11.dtd">

<!-- Uploaded to: SVG Repo, www.svgrepo.com, Transformed by: SVG Repo Mixer Tools -->
<svg xmlns="http://www.w3.org/2000/svg" aria-label="JavaScript" role="img" viewBox="-107.52 -107.52 727.04 727.04" width="256px" height="256px" fill="#000000">

<g id="SVGRepo_bgCarrier" stroke-width="0">

<path transform="translate(-107.52, -107.52), scale(45.44)" fill="#fafafa" d="M9.166.33a2.25 2.25 0 00-2.332 0l-5.25 3.182A2.25 2.25 0 00.5 5.436v5.128a2.25 2.25 0 001.084 1.924l5.25 3.182a2.25 2.25 0 002.332 0l5.25-3.182a2.25 2.25 0 001.084-1.924V5.436a2.25 2.25 0 00-1.084-1.924L9.166.33z" strokewidth="0"/>

</g>

<g id="SVGRepo_tracerCarrier" stroke-linecap="round" stroke-linejoin="round"/>

<g id="SVGRepo_iconCarrier">

<rect width="512" height="512" rx="15%" fill="#f7df1e"/>

<path d="M324 370c10 17 24 29 47 29c20 0 33-10 33 -24c0-16 -13 -22 -35 -32l-12-5c-35-15 -58 -33 -58 -72c0-36 27 -64 70 -64c31 0 53 11 68 39l-37 24c-8-15 -17 -21 -31 -21c-14 0-23 9 -23 21c0 14 9 20 30 29l12 5c41 18 64 35 64 76c0 43-34 67 -80 67c-45 0-74 -21 -88 -49zm-170 4c8 13 14 25 31 25c16 0 26-6 26 -30V203h48v164c0 50-29 72 -72 72c-39 0-61 -20 -72 -44z"/>

</g>

</svg>