<!DOCTYPE svg PUBLIC "-//W3C//DTD SVG 1.1//EN" "http://www.w3.org/Graphics/SVG/1.1/DTD/svg11.dtd">

<!-- Uploaded to: SVG Repo, www.svgrepo.com, Transformed by: SVG Repo Mixer Tools -->
<svg width="256px" height="256px" viewBox="0 0 32.00 32.00" xmlns="http://www.w3.org/2000/svg" fill="#000000">

<g id="SVGRepo_bgCarrier" stroke-width="0">

<path transform="translate(0, 0), scale(2)" fill="#ffffff" d="M9.166.33a2.25 2.25 0 00-2.332 0l-5.25 3.182A2.25 2.25 0 00.5 5.436v5.128a2.25 2.25 0 001.084 1.924l5.25 3.182a2.25 2.25 0 002.332 0l5.25-3.182a2.25 2.25 0 001.084-1.924V5.436a2.25 2.25 0 00-1.084-1.924L9.166.33z" strokewidth="0"/>

</g>

<g id="SVGRepo_tracerCarrier" stroke-linecap="round" stroke-linejoin="round"/>

<g id="SVGRepo_iconCarrier">

<title>file_type_tailwind</title>

<path d="M9,13.7q1.4-5.6,7-5.6c5.6,0,6.3,4.2,9.1,4.9q2.8.7,4.9-2.1-1.4,5.6-7,5.6c-5.6,0-6.3-4.2-9.1-4.9Q11.1,10.9,9,13.7ZM2,22.1q1.4-5.6,7-5.6c5.6,0,6.3,4.2,9.1,4.9q2.8.7,4.9-2.1-1.4,5.6-7,5.6c-5.6,0-6.3-4.2-9.1-4.9Q4.1,19.3,2,22.1Z" style="fill:#2F4F4F"/>

</g>

</svg>